Coordinates
version=1
nRows=10
nColumns=22
inDegrees=yes

Units are S.I. units (second, meters, Newtons, ...)
If the header above contains a line with 'inDegrees', this indicates whether rotational values are in degrees (yes) or radians (no).

endheader
time	pelvis_tilt	pelvis_list	pelvis_rotation	pelvis_tx	pelvis_ty	pelvis_tz	hip_flexion_r	hip_adduction_r	hip_rotation_r	knee_angle_r	ankle_angle_r	subtalar_angle_r	hip_flexion_l	hip_adduction_l	hip_rotation_l	knee_angle_l	ankle_angle_l	subtalar_angle_l	lumbar_extension	lumbar_bending	lumbar_rotation
      1.99000000	      1.32287047	     -3.99571760	    113.95570425	     -0.64026984	      0.98209012	      0.33961709	     -7.23299940	      5.62495299	     11.83467120	    -27.91257452	      8.53053605	      5.27702860	     24.58850040	     -3.23281754	     15.75601088	    -15.46385410	      4.49236444	     16.27286807	     -0.03733032	     -4.64096426	      6.42621493
      2.00000000	      0.83336363	     -4.17336271	    113.09999655	     -0.64523560	      0.98337011	      0.33062140	     -6.61327087	      4.77026066	     10.61379796	    -29.77791537	      7.34032813	      6.66386097	     24.19462026	     -2.88429239	     14.70645620	    -16.19574951	      4.53845458	     16.27550587	      0.02765090	     -5.27169308	      6.41897463
      2.01000000	      0.32878194	     -4.36780554	    112.20637945	     -0.65004422	      0.98463739	      0.32186180	     -5.79163138	      3.81682193	      9.16777046	    -31.83790249	      6.10392574	      7.81861315	     23.70924982	     -2.54128555	     13.63003526	    -16.69973358	      4.67235068	     16.14677072	      0.09239594	     -5.90198468	      6.43466523
      2.02000000	     -0.18285739	     -4.57588995	    111.28287667	     -0.65471092	      0.98586397	      0.31339016	     -4.78247132	      2.76427766	      7.56293431	    -34.05371350	      4.88870139	      8.69588496	     23.15425017	     -2.19043693	     12.56303724	    -17.00979065	      4.87233257	     15.87305567	      0.14903099	     -6.51286290	      6.44656687
      2.03000000	     -0.70883773	     -4.79396927	    110.32929465	     -0.65919574	      0.98705693	      0.30517841	     -3.62014015	      1.61092780	      5.87943538	    -36.36631193	      3.78209101	      9.13375661	     22.52729113	     -1.81956283	     11.54503973	    -17.13038236	      5.11045888	     15.60630553	      0.19594052	     -7.11973411	      6.46302208
      2.04000000	     -1.20214718	     -5.03070947	    109.36544421	     -0.66353096	      0.98814498	      0.29724702	     -2.30200682	      0.41476184	      4.21330817	    -38.73059358	      2.91861828	      9.37183658	     21.90428545	     -1.45377019	     10.54913062	    -17.14234585	      5.37679693	     15.01045038	      0.25813554	     -7.66603165	      6.43681960
      2.05000000	     -1.68072043	     -5.24142960	    108.38895755	     -0.66762338	      0.98922252	      0.28955258	     -0.90784866	     -0.79145673	      2.64409406	    -41.08575619	      2.30580997	      9.16962900	     21.23863307	     -1.09842536	      9.61892838	    -17.05464199	      5.65509977	     14.47957973	      0.27462296	     -8.17222800	      6.37910809
      2.06000000	     -2.12192661	     -5.42516215	    107.41675209	     -0.67150009	      0.99028754	      0.28202645	      0.53535808	     -1.95351453	      1.22125542	    -43.37448748	      1.98716638	      8.64876150	     20.54931294	     -0.77171229	      8.74284796	    -16.89390067	      5.94526776	     13.95370491	      0.26385359	     -8.61409357	      6.27860185
      2.07000000	     -2.51028817	     -5.56335043	    106.46057070	     -0.67512186	      0.99137083	      0.27467268	      1.99733632	     -3.01119023	     -0.01958642	    -45.56182467	      1.95700333	      7.91145768	     19.84685857	     -0.49590746	      7.90766541	    -16.70300494	      6.23568840	     13.46986702	      0.20396602	     -8.97685106	      6.12222977
      2.08000000	     -2.83055627	     -5.64678600	    105.52879843	     -0.67847031	      0.99248648	      0.26745380	      3.45188387	     -3.91399380	     -1.06948582	    -47.61200851	      2.18666258	      7.05091594	     19.12955231	     -0.29056858	      7.12648699	    -16.49770101	      6.54551694	     13.03624974	      0.09018560	     -9.24820335	      5.91023546
